<?xml version="1.0" encoding="utf-8"?>
<!-- Generator: Adobe Illustrator 23.0.3, SVG Export Plug-In . SVG Version: 6.00 Build 0)  -->
<svg version="1.1" id="Layer_1" xmlns="http://www.w3.org/2000/svg" xmlns:xlink="http://www.w3.org/1999/xlink" x="0px" y="0px"
	 viewBox="0 0 24 24" style="enable-background:new 0 0 24 24;" xml:space="preserve">
<style type="text/css">
	.st0{fill:url(#SVGID_1_);}
	.st1{fill:none;stroke:#FFFFFF;stroke-width:0.75;stroke-miterlimit:10;}
	.st2{fill:url(#SVGID_2_);}
	.st3{fill:url(#SVGID_3_);}
	.st4{fill:url(#SVGID_4_);}
	.st5{fill:url(#SVGID_5_);}
	.st6{fill:url(#SVGID_6_);}
	.st7{fill:url(#SVGID_7_);}
	.st8{fill:url(#SVGID_8_);}
	.st9{fill:url(#SVGID_9_);}
	.st10{fill:url(#SVGID_10_);}
	.st11{fill:url(#SVGID_11_);}
	.st12{fill:url(#SVGID_12_);}
	.st13{fill:#FFFFFF;}
</style>
<linearGradient id="SVGID_1_" gradientUnits="userSpaceOnUse" x1="0.125" y1="12" x2="23.875" y2="12">
	<stop  offset="0" style="stop-color:#E7316C"/>
	<stop  offset="1" style="stop-color:#FFA614"/>
</linearGradient>
<circle class="st0" cx="12" cy="12" r="11.9"/>
<circle class="st1" cx="12" cy="12" r="10.6"/>
<circle class="st1" cx="12" cy="12" r="10.3"/>
<g>
	<path class="st13" d="M12,8.9c-1.7,0-3.1,1.4-3.1,3.1c0,1.7,1.4,3.1,3.1,3.1c1.7,0,3.1-1.4,3.1-3.1C15.1,10.3,13.7,8.9,12,8.9
		L12,8.9z M12,14c-1.1,0-2-0.9-2-2s0.9-2,2-2s2,0.9,2,2C14,13.1,13.1,14,12,14z"/>
	<path class="st13" d="M14.5,6c-1.1-0.1-3.9,0-5,0c-1,0-1.9,0.3-2.5,1c-1.2,1.2-1,2.7-1,5.1c0,2.4-0.1,3.9,1,5.1
		c1.2,1.2,2.8,1,5.1,1c2.3,0,3.1,0,4-0.3c1.1-0.4,2-1.4,2.1-3.2c0.1-1.1,0-3.9,0-5C17.9,7.4,16.8,6.1,14.5,6L14.5,6z M16.3,16.3
		C15.5,17,14.4,17,12,17c-2.5,0-3.5,0-4.3-0.7C6.8,15.4,7,14.1,7,12c0-2.8-0.3-4.8,2.5-5c0.6,0,0.8,0,2.5,0l0,0
		c2.7,0,4.8-0.3,4.9,2.5c0,0.6,0,0.8,0,2.5C17,14.5,17,15.5,16.3,16.3L16.3,16.3z"/>
	<circle class="st13" cx="15.2" cy="8.8" r="0.7"/>
</g>
</svg>
